<svg xmlns="http://www.w3.org/2000/svg"
     viewBox="0 0 348 68"
     preserveAspectRatio="xMidYMid meet">
<defs>
<path id="fm61932k4a" d="M0.307 0.089L25.607 0.089 25.607 25.388 0.307 25.388z"/>
</defs>
<g fill="none" transform="translate(55,0)">
<g transform="translate(211.875 11.241)">
    <mask id="ua3r57j0zb" fill="#fff">
        <use href="#fm61932k4a" />
    </mask>
    <path fill="#5053FF" d="M19.468 12.738c0 3.597-2.915 6.512-6.51 6.512-3.597 0-6.513-2.915-6.513-6.512 0-3.596 2.916-6.511 6.512-6.511 3.596 0 6.511 2.915 6.511 6.511M12.958.088C5.97.089.306 5.753.306 12.739c0 6.986 5.664 12.65 12.65 12.65 6.986 0 12.65-5.664 12.65-12.65 0-6.986-5.664-12.65-12.65-12.65" mask="url(#ua3r57j0zb)"/>
</g>
<path fill="#5053FF" d="M14.975 29.193H7.072V6.916h7.903c6.25 0 10.615 4.582 10.615 11.141 0 5.364-3.322 11.136-10.615 11.136M14.889 0H.69C.309 0 0 .31 0 .69v34.736c0 .382.308.691.69.691h14.198c10.266 0 18.008-7.912 18.008-18.403C32.897 7.449 25.343 0 14.889 0M62.165 23.982c0 7.461-6.048 13.51-13.51 13.51-7.46 0-13.509-6.049-13.509-13.51 0-7.461 6.049-13.51 13.51-13.51 7.46 0 13.51 6.049 13.51 13.51"/>
<path fill="#FF7B7B" d="M53.715 17.868l-7.004 2.288c-.448.144-.844.392-1.166.715l6.221 6.222c.322-.324.569-.722.716-1.166l2.286-7.005c.216-.649-.402-1.262-1.053-1.054"/>
<path fill="#FFF" d="M42.542 29.041l2.288-7.004c.143-.447.391-.844.715-1.166l6.221 6.222c-.323.321-.722.568-1.165.716l-7.005 2.286c-.649.215-1.262-.403-1.054-1.054"/>
<path fill="#5053FF" d="M200.022 11.847c-3.697 0-6.484 1.648-7.958 4.087-1.114-2.594-3.434-4.087-6.556-4.087-2.9 0-4.906 1.053-6.219 3.163l.015-2.476c.004-.474-.46-.81-.91-.66l-5.19 1.732c-.282.094-.472.358-.472.655v21.165c0 .382.31.691.691.691h5.217c.382 0 .691-.31.691-.69v-13.04c0-3.282 1.454-4.988 4.22-4.988 2.713 0 4.126 1.65 4.126 4.821v13.206c0 .382.31.691.691.691h5.203c.382 0 .691-.31.691-.69V22.104c0-2.954 1.55-4.706 4.29-4.706 2.786 0 4.034 1.534 4.034 5.39v12.637c0 .382.309.691.69.691h5.218c.381 0 .69-.31.69-.69V22.635c0-6.855-3.472-10.79-9.162-10.79M96.693 17.359h5.39c.297 0 .56-.19.655-.472l1.379-4.13c.149-.448-.184-.91-.656-.91h-6.768V5.882c0-.472-.462-.805-.91-.655l-5.217 1.742c-.282.094-.472.358-.472.655v16.504c0 8.419 3.533 12.207 11.422 12.037l.205-.004c.312-.008.567-.2.66-.482l1.541-4.614c.14-.42-.19-.933-.702-.897-5.361.37-6.527-1.698-6.527-6.04v-6.77zM87.228 31.914l-3.212-3.218c-.265-.265-.695-.285-.97-.03-1.054.982-2.857 2.062-5.072 2.062-4.429 0-6.777-3.38-6.777-6.938 0-3.455 2.18-6.568 6.777-6.568 1.996 0 3.83.95 4.898 1.799.27.213.678.202.922-.04l3.25-3.222c.326-.323.207-.804-.033-1.002-1.606-1.327-4.79-3.427-9.275-3.427-7.358 0-12.834 5.475-12.834 12.594 0 7.255 5.168 12.696 12.834 12.696 5.047 0 8.33-2.485 9.516-3.755.25-.269.236-.69-.024-.95M127.73 36.63c4.894.004 8.512-2.739 8.74-6.8.236-4.185-2.519-7.124-8.136-8.617-2.385-.671-3.26-1.423-3.185-2.717.075-1.284 1.32-2.085 3.193-1.988 1.851.098 3.604 1.021 4.663 1.752.36.249.907.147 1.08-.37l1.158-3.468c.095-.285-.004-.605-.253-.773-2.25-1.515-5.279-2.32-7.416-2.32-4.882 0-8.44 2.786-8.68 6.883-.237 4.083 2.398 6.701 8.02 8.262 2.384.723 3.19 1.434 3.117 2.89-.067 1.31-1.352 2.132-3.128 2.046-2.382-.121-4.91-1.982-5.775-2.645-.287-.22-.66-.066-.755.22l-1.408 4.218c-.099.294.01.624.27.796 2.76 1.822 5.574 2.629 8.495 2.63M148.03 36.63c4.895.004 8.513-2.739 8.741-6.8.236-4.185-2.519-7.124-8.137-8.617-2.384-.671-3.26-1.423-3.184-2.717.075-1.284 1.32-2.085 3.193-1.988 1.85.098 3.604 1.021 4.663 1.752.36.249.907.147 1.08-.37l1.158-3.468c.094-.285-.004-.605-.253-.773-2.251-1.515-5.28-2.32-7.417-2.32-4.881 0-8.44 2.786-8.679 6.883-.238 4.083 2.398 6.701 8.02 8.262 2.384.723 3.19 1.434 3.117 2.89-.067 1.31-1.352 2.132-3.128 2.046-2.382-.121-4.91-1.982-5.775-2.645-.287-.22-.66-.066-.755.22l-1.408 4.218c-.1.294.01.624.27.796 2.76 1.822 5.574 2.629 8.495 2.63M107.966 35.426c0 .382.31.691.691.691h5.218c.381 0 .69-.31.69-.69V12.532c0-.472-.462-.805-.91-.656l-5.217 1.744c-.281.094-.472.358-.472.655v21.15zM115.052 5.135c0 2.091-1.695 3.787-3.786 3.787s-3.786-1.696-3.786-3.787c0-2.09 1.695-3.786 3.786-3.786s3.786 1.695 3.786 3.786M160.852 35.426c0 .382.309.691.69.691h5.218c.381 0 .691-.31.691-.69V12.532c0-.472-.463-.805-.91-.656l-5.217 1.744c-.282.094-.472.358-.472.655v21.15zM167.938 5.135c0 2.091-1.696 3.787-3.787 3.787-2.09 0-3.786-1.696-3.786-3.787 0-2.09 1.695-3.786 3.786-3.786s3.787 1.695 3.787 3.786"/>
</g>
        </svg>